<svg xmlns="http://www.w3.org/2000/svg" width="91.532" height="24.63" viewBox="0 0 91.532 24.63">
  <metadata><?xpacket begin="﻿" id="W5M0MpCehiHzreSzNTczkc9d"?>
<x:xmpmeta xmlns:x="adobe:ns:meta/" x:xmptk="Adobe XMP Core 5.6-c138 79.159824, 2016/09/14-01:09:01        ">
   <rdf:RDF xmlns:rdf="http://www.w3.org/1999/02/22-rdf-syntax-ns#">
      <rdf:Description rdf:about=""/>
   </rdf:RDF>
</x:xmpmeta>
                                                                                                    
                                                                                                    
                                                                                                    
                                                                                                    
                                                                                                    
                                                                                                    
                                                                                                    
                                                                                                    
                                                                                                    
                                                                                                    
                                                                                                    
                                                                                                    
                                                                                                    
                                                                                                    
                                                                                                    
                                                                                                    
                                                                                                    
                                                                                                    
                                                                                                    
                                                                                                    
                           
<?xpacket end="w"?></metadata>
<defs>
    <style>
      .cls-1 {
        fill: #fff;
        fill-rule: evenodd;
      }
    </style>
  </defs>
  <path id="Portland" class="cls-1" d="M116.037,3524.43a1.813,1.813,0,0,0,.885.23,1.849,1.849,0,0,0,1.346-.41,3.018,3.018,0,0,0,.686-1.09,13.549,13.549,0,0,0,.515-1.52c0.167-.59.33-1.22,0.489-1.9s0.307-1.37.449-2.07,0.281-1.39.422-2.06a12,12,0,0,0,4.594-1.09,12.381,12.381,0,0,0,3.405-2.31,10.592,10.592,0,0,0,2.192-2.97,9.264,9.264,0,0,0,.95-3.08,7.579,7.579,0,0,0-.079-1.85,5.773,5.773,0,0,0-.7-2.01,4.712,4.712,0,0,0-1.558-1.61,4.849,4.849,0,0,0-2.679-.66,13.574,13.574,0,0,0-3.036.32,14.587,14.587,0,0,0-2.4.75,12.519,12.519,0,0,0-1.729.88q-0.7.45-1.043,0.69a1.2,1.2,0,0,0-.66.87,2.176,2.176,0,0,0,.159.82,1.973,1.973,0,0,0,.185.34,2.286,2.286,0,0,0,.527.64c0.3-.32.608-0.62,0.924-0.91s0.616-.55.9-0.78a8.234,8.234,0,0,1,.977-0.71c-0.123.44-.29,1.05-0.5,1.84s-0.449,1.68-.712,2.66-0.538,2-.819,3.09-0.559,2.13-.832,3.15-0.523,1.98-.752,2.88-0.414,1.63-.554,2.21a20.643,20.643,0,0,1-.766,2.59,9.234,9.234,0,0,1-.673,1.45,2.655,2.655,0,0,1-.528.69c-0.149.12-.26,0.21-0.33,0.26A2.71,2.71,0,0,0,116.037,3524.43Zm5.954-14.74c0.158-.72.373-1.65,0.646-2.8s0.621-2.56,1.043-4.27a1.046,1.046,0,0,0-.237-0.45,0.436,0.436,0,0,0-.185-0.13,9.358,9.358,0,0,1,1.267-.48,4.706,4.706,0,0,1,1.294-.18,4.373,4.373,0,0,1,1.372.22,2.989,2.989,0,0,1,1.215.77,3.472,3.472,0,0,1,.805,1.42,5.619,5.619,0,0,1,.145,2.21,8.737,8.737,0,0,1-.594,2.49,8.592,8.592,0,0,1-1.148,2.01,9.519,9.519,0,0,1-1.518,1.56,11.448,11.448,0,0,1-1.7,1.14,10.157,10.157,0,0,1-1.742.76,10.733,10.733,0,0,1-1.584.38c0.105-.56.2-1.07,0.277-1.52s0.145-.81.2-1.09q0.157-.765.449-2.04h0Zm19.061,5.31a19.254,19.254,0,0,0,1.61-1.08c0.493-.37.92-0.72,1.28-1.03a7.607,7.607,0,0,0,.674-0.64,1.341,1.341,0,0,0,.29-0.52,0.5,0.5,0,0,0-.026-0.37,0.236,0.236,0,0,0-.264-0.11,0.973,0.973,0,0,0-.449.27,8.988,8.988,0,0,1-.845.71q-0.528.39-1.148,0.78-0.621.375-1.281,0.72a13.182,13.182,0,0,1-1.267.58c0.017-.14.035-0.31,0.053-0.51s0.026-.38.026-0.52a4.061,4.061,0,0,0-.343-1.75,3.925,3.925,0,0,0-.832-1.2,3.635,3.635,0,0,0-1-.72,2.906,2.906,0,0,0-.858-0.26c-0.053-.02-0.1-0.03-0.145-0.05a0.345,0.345,0,0,0-.145-0.03,4.189,4.189,0,0,0-.977.12,4.1,4.1,0,0,0-.937.34,2.871,2.871,0,0,0-.766.57,2.16,2.16,0,0,0-.488.79,6.192,6.192,0,0,0-.779,1.16,9.124,9.124,0,0,0-.541,1.27,10.027,10.027,0,0,0-.33,1.24,5.843,5.843,0,0,0-.119,1.11q0,0.72.066,1.53a4.612,4.612,0,0,0,.37,1.51,2.915,2.915,0,0,0,.924,1.15,2.845,2.845,0,0,0,1.7.46,4.009,4.009,0,0,0,1.7-.36,4.742,4.742,0,0,0,1.4-.99,6.124,6.124,0,0,0,1.07-1.5,9.2,9.2,0,0,0,.712-1.88A8.091,8.091,0,0,0,141.052,3515Zm-5.267-4a1.892,1.892,0,0,1,.963-0.28,0.693,0.693,0,0,1,.542.28,2.211,2.211,0,0,1,.369.71,4.5,4.5,0,0,1,.2.97,5.065,5.065,0,0,1,0,1.03,2.049,2.049,0,0,1-.066.48q-0.066.285-.145,0.63a2.37,2.37,0,0,1-.264.03,2.345,2.345,0,0,1-.264.02,2.8,2.8,0,0,1-1.28-.25,1.716,1.716,0,0,1-.674-0.62,2.191,2.191,0,0,1-.264-0.84,7.677,7.677,0,0,1-.052-0.88,1.55,1.55,0,0,1,.079-0.5A3.049,3.049,0,0,1,135.785,3511Zm-2.442,4.42q0.105-.525.264-1.08a3.914,3.914,0,0,0,1.122,1.52,2.674,2.674,0,0,0,1.729.59c0.141,0,.268,0,0.383-0.01s0.233-.02.356-0.04a7.068,7.068,0,0,1-.435.96,4.422,4.422,0,0,1-.568.82,2.746,2.746,0,0,1-.713.58,1.736,1.736,0,0,1-.871.23,1.02,1.02,0,0,1-.686-0.23,1.575,1.575,0,0,1-.423-0.58,2.783,2.783,0,0,1-.211-0.82,7.928,7.928,0,0,1-.053-0.93A5.1,5.1,0,0,1,133.343,3515.42Zm8.276,3.79q0.332-.54.805-1.32t1.017-1.68c0.36-.59.7-1.17,1.03-1.71s0.611-1.02.858-1.43,0.4-.67.475-0.79a3.458,3.458,0,0,1,.449.16,1.432,1.432,0,0,0,.58.1,3.38,3.38,0,0,0,.357-0.01,1.378,1.378,0,0,1,.185-0.01,0.621,0.621,0,0,0,.132-0.02c0.043,0,.118-0.01.224-0.01a0.357,0.357,0,0,1,.343.19,0.819,0.819,0,0,1,.106.42,2.09,2.09,0,0,1-.277.91c-0.185.36-.427,0.8-0.726,1.31-0.124.24-.26,0.49-0.41,0.75s-0.29.51-.422,0.76-0.247.51-.343,0.74a2.343,2.343,0,0,0-.172.68,2.746,2.746,0,0,0,.092.86,2.589,2.589,0,0,0,.4.84,2.335,2.335,0,0,0,.726.65,2.271,2.271,0,0,0,1.135.26,2.845,2.845,0,0,0,1.386-.4,8.52,8.52,0,0,0,1.452-1.01,13.35,13.35,0,0,0,1.386-1.37c0.44-.51.84-0.99,1.2-1.47s0.669-.91.924-1.29,0.436-.67.541-0.85a0.986,0.986,0,0,0,.2-0.63,0.4,0.4,0,0,0-.2-0.32,0.471,0.471,0,0,0-.369,0,0.674,0.674,0,0,0-.344.29q-0.157.21-.488,0.69c-0.22.32-.488,0.67-0.805,1.07s-0.66.8-1.03,1.21a15.366,15.366,0,0,1-1.122,1.14,7.608,7.608,0,0,1-1.109.84,1.939,1.939,0,0,1-.99.33,0.876,0.876,0,0,1-.739-0.21,1.426,1.426,0,0,1-.185-0.55,2.038,2.038,0,0,1,.317-1.19,13.762,13.762,0,0,1,.739-1.19q0.608-.84,1.03-1.56a2.152,2.152,0,0,0,.343-1.37,4.791,4.791,0,0,0-.119-0.7,2.832,2.832,0,0,0-.277-0.71,1.84,1.84,0,0,0-.475-0.56,1.17,1.17,0,0,0-.739-0.22,2.27,2.27,0,0,0-.541.05,2.122,2.122,0,0,1-.594.05,1.093,1.093,0,0,1-.423-0.06,2.255,2.255,0,0,1-.211-0.12,2.556,2.556,0,0,0,.4-0.95,2.585,2.585,0,0,0,.053-0.87,2.256,2.256,0,0,0-.357-0.98,1.131,1.131,0,0,0-1.043-.47,1.249,1.249,0,0,0-.818.37,4.278,4.278,0,0,0-.765.88,5.285,5.285,0,0,0-.555,1.07,1.848,1.848,0,0,0-.158.9,1.058,1.058,0,0,0,.158.51,4.6,4.6,0,0,0,.4.38c-0.106.2-.273,0.51-0.5,0.94s-0.479.92-.752,1.47-0.559,1.12-.858,1.73-0.576,1.17-.832,1.69-0.475.96-.66,1.33-0.3.61-.356,0.71a0.792,0.792,0,0,0-.106.53,0.388,0.388,0,0,0,.225.28,0.557,0.557,0,0,0,.4-0.03,0.928,0.928,0,0,0,.409-0.38C141.263,3519.79,141.4,3519.57,141.619,3519.21Zm20.764-5.17q-0.4.51-.924,1.14c-0.352.43-.735,0.86-1.148,1.3s-0.823.84-1.228,1.21a6.97,6.97,0,0,1-1.175.89,1.534,1.534,0,0,1-.963.27,1.349,1.349,0,0,1-.845-0.31,2.008,2.008,0,0,1-.489-0.86,4.009,4.009,0,0,1-.039-1.73c0.457-1.06.871-2.05,1.241-2.98s0.686-1.76.95-2.48c0.3-.83.563-1.6,0.792-2.3a7.9,7.9,0,0,0,.251-0.86c0.061-.27.127-0.55,0.2-0.83,0.141,0,.277,0,0.409-0.01s0.251-.02.357-0.02q0.844,0,1.478.06c0.422,0.03.787,0.07,1.1,0.1s0.571,0.08.792,0.13a3.831,3.831,0,0,0,.594.11,0.577,0.577,0,0,0,.475-0.11,0.864,0.864,0,0,0,.3-0.38,0.98,0.98,0,0,0,.08-0.44,0.264,0.264,0,0,0-.2-0.26,4.594,4.594,0,0,1-.555-0.2,9.589,9.589,0,0,0-.977-0.29c-0.405-.09-0.893-0.18-1.465-0.26a14.332,14.332,0,0,0-1.967-.12,14.358,14.358,0,0,0,.291-2.22,2.462,2.462,0,0,0-.106-1.08,0.636,0.636,0,0,0-.422-0.2,3.087,3.087,0,0,0-.608,0,3.506,3.506,0,0,0-.593.13,0.677,0.677,0,0,0-.357.23,5.589,5.589,0,0,0-.594,1.3c-0.22.63-.445,1.36-0.673,2.21-0.3.05-.6,0.1-0.911,0.13s-0.629.06-.964,0.08c-0.457.02-.88,0.01-1.267-0.01s-0.748-.06-1.082-0.1a0.616,0.616,0,0,0-.357.15,1.455,1.455,0,0,0-.33.34,0.971,0.971,0,0,0-.158.4,0.28,0.28,0,0,0,.185.3,6.2,6.2,0,0,0,1.122.39,6.343,6.343,0,0,0,1.6.19,6.093,6.093,0,0,0,.818-0.05c0.3-.03.6-0.07,0.9-0.11-0.247,1.03-.48,2.09-0.7,3.19s-0.418,2.13-.594,3.08-0.316,1.81-.422,2.54-0.167,1.24-.185,1.52a3.379,3.379,0,0,0,.079,1.09,3.3,3.3,0,0,0,.462,1.1,2.773,2.773,0,0,0,.911.84,2.8,2.8,0,0,0,1.452.35,2.758,2.758,0,0,0,1.5-.66,13.542,13.542,0,0,0,1.848-1.68,24.16,24.16,0,0,0,1.809-2.18,16.923,16.923,0,0,0,1.386-2.16,1.068,1.068,0,0,0,.145-0.5,0.341,0.341,0,0,0-.119-0.27,0.358,0.358,0,0,0-.277-0.04,0.444,0.444,0,0,0-.277.2C162.832,3513.45,162.647,3513.69,162.383,3514.04Zm-1.188,5.99a1.99,1.99,0,0,0,.317.28,1.425,1.425,0,0,0,.37.15,2.807,2.807,0,0,0,.4.03,1.488,1.488,0,0,0,.343-0.05,0.766,0.766,0,0,0,.317-0.19q1.214-4.77,2.019-7.92c0.537-2.09.964-3.75,1.281-4.96q0.553-2.145.871-3.27c0.088-.39.167-0.75,0.237-1.09,0.036-.28.057-0.55,0.066-0.81a0.643,0.643,0,0,0-.145-0.53,0.281,0.281,0,0,0-.237-0.17,1.684,1.684,0,0,0-.4-0.04,2.56,2.56,0,0,0-.528.05c-0.194.03-.388,0.08-0.581,0.13-0.159.04-.322,0.08-0.489,0.13a2.968,2.968,0,0,0-.462.21,3.932,3.932,0,0,1,.08.82,7.01,7.01,0,0,1-.053.87c-0.036.32-.079,0.65-0.132,0.98-0.106.48-.3,1.33-0.581,2.56-0.247,1.04-.6,2.55-1.069,4.52s-1.087,4.58-1.861,7.84A1.077,1.077,0,0,0,161.2,3520.03Zm20-6.03a0.646,0.646,0,0,0-.039-0.48,0.3,0.3,0,0,0-.317-0.12,0.8,0.8,0,0,0-.422.28q-0.159.21-.515,0.66c-0.238.3-.506,0.64-0.805,1.03s-0.621.79-.964,1.2-0.673.79-.99,1.14a7.887,7.887,0,0,1-.9.84,1.251,1.251,0,0,1-.686.33,0.772,0.772,0,0,1-.488-0.14,0.863,0.863,0,0,1-.251-0.39,1.919,1.919,0,0,1-.093-0.51,3.244,3.244,0,0,1,.014-0.52l0.132-.66c0.035-.17.066-0.33,0.092-0.46s0.053-.26.079-0.39,0.057-.28.093-0.44q0.263-1.215.422-1.98c0.106-.51.185-0.92,0.238-1.21a4.388,4.388,0,0,0,.079-0.63,0.594,0.594,0,0,0-.027-0.22,0.486,0.486,0,0,0-.211-0.03,3.488,3.488,0,0,0-.383.03,5.118,5.118,0,0,0-.62.11,1.908,1.908,0,0,0,.436-1.36,1.237,1.237,0,0,0-.489-0.78,3.123,3.123,0,0,0-1.161-.43,3.007,3.007,0,0,0-1.532.43,7.752,7.752,0,0,0-1.874,1.41,11.591,11.591,0,0,0-1.756,2.26,9.729,9.729,0,0,0-1.175,2.93,6.306,6.306,0,0,0-.211,2.04,3.637,3.637,0,0,0,.37,1.4,1.917,1.917,0,0,0,.713.79,1.554,1.554,0,0,0,.792.26,5.643,5.643,0,0,0,1.584-.35,6,6,0,0,0,1.452-.83,5.567,5.567,0,0,0,1.4-1.62,4.26,4.26,0,0,0,.092,1.18,4.517,4.517,0,0,0,.251.77,1.372,1.372,0,0,0,.4.53,1.59,1.59,0,0,0,.555.22,2.132,2.132,0,0,0,.673.04,2.8,2.8,0,0,0,.7-0.13,3.039,3.039,0,0,0,.608-0.26,6.241,6.241,0,0,0,.99-0.91c0.4-.43.8-0.91,1.214-1.43s0.814-1.04,1.2-1.56,0.7-.95.951-1.3A2.055,2.055,0,0,0,181.193,3514Zm-8.342,2.32a5.983,5.983,0,0,1-.5.63,5.912,5.912,0,0,1-.686.66,4.323,4.323,0,0,1-.766.52,1.814,1.814,0,0,1-.752.21,0.838,0.838,0,0,1-.66-0.28,1.147,1.147,0,0,1-.211-0.67,5.1,5.1,0,0,1,.039-1.2,9.4,9.4,0,0,1,.33-1.47,7.048,7.048,0,0,1,.634-1.46,9.155,9.155,0,0,1,1.676-2.29c0.484-.41.823-0.54,1.017-0.38a0.629,0.629,0,0,1,.1.29,1.5,1.5,0,0,1-.013.44,2.444,2.444,0,0,1-.251.7,3.147,3.147,0,0,1,.423-0.08,1.9,1.9,0,0,0,.343-0.08,2.078,2.078,0,0,1,.29-0.08c0.07-.02.084,0.12,0.04,0.41s-0.11.65-.2,1.09-0.194.9-.317,1.38-0.229.89-.317,1.24A1.329,1.329,0,0,1,172.851,3516.32Zm15.259,3.97a7.257,7.257,0,0,0,1.307-.92,12.156,12.156,0,0,0,1.267-1.27c0.405-.46.783-0.93,1.136-1.38s0.655-.89.91-1.3,0.445-.73.568-0.97a1.707,1.707,0,0,0,.211-0.7,0.406,0.406,0,0,0-.119-0.36,0.335,0.335,0,0,0-.33.03,1.373,1.373,0,0,0-.448.44c-0.229.36-.564,0.82-1,1.39s-0.906,1.13-1.4,1.68a13.386,13.386,0,0,1-1.465,1.4,2.184,2.184,0,0,1-1.2.58,0.443,0.443,0,0,1-.515-0.43,2.861,2.861,0,0,1,.119-1q0.29-.9.488-1.65c0.132-.5.242-0.94,0.33-1.31l0.291-1.16a4.775,4.775,0,0,0,.2-1.55,3.561,3.561,0,0,0-.264-1.23,1.942,1.942,0,0,0-.621-0.81,1.5,1.5,0,0,0-.9-0.29,3.086,3.086,0,0,0-1.187.25,5.411,5.411,0,0,0-1.1.65,7,7,0,0,0-.95.88,12.036,12.036,0,0,0-.779.97q0.158-.45.264-0.87c0.07-.25.14-0.48,0.211-0.7s0.132-.39.185-0.52a1.181,1.181,0,0,0-.357-0.2,2.227,2.227,0,0,0-.8-0.11,1.658,1.658,0,0,0-.449.1,2.029,2.029,0,0,0-.409.15,1.5,1.5,0,0,0-.383.25c-0.176.67-.33,1.28-0.462,1.85s-0.242,1.05-.33,1.47q-0.157.75-.29,1.35c-0.124.51-.256,1.05-0.4,1.61s-0.277,1.1-.409,1.6-0.247.94-.344,1.3-0.153.61-.171,0.72c-0.035.16,0.057,0.23,0.277,0.23a2.52,2.52,0,0,0,.779-0.15,4.89,4.89,0,0,0,.845-0.41,1.028,1.028,0,0,0,.475-0.52c0.053-.24.114-0.5,0.185-0.78s0.145-.59.224-0.95,0.172-.76.277-1.21,0.238-.97.4-1.57c0.3-.44.6-0.87,0.911-1.28a10.69,10.69,0,0,1,.924-1.1,4.874,4.874,0,0,1,.911-0.75,1.615,1.615,0,0,1,.871-0.28,0.448,0.448,0,0,1,.449.39,2.788,2.788,0,0,1,.053.97,9.263,9.263,0,0,1-.225,1.32c-0.114.49-.237,0.97-0.369,1.45s-0.26.94-.383,1.35-0.211.74-.264,0.99a2.636,2.636,0,0,0-.053,1.04,1.962,1.962,0,0,0,.343.86,1.8,1.8,0,0,0,.7.59,2.246,2.246,0,0,0,1.043.23A2.532,2.532,0,0,0,188.11,3520.29Zm13.438-8.13c0.5-.98.946-1.95,1.333-2.93a24.315,24.315,0,0,0,.938-2.84,12.436,12.436,0,0,0,.409-2.53,10.69,10.69,0,0,0,0-1.51,2.4,2.4,0,0,0-.2-0.83,0.634,0.634,0,0,0-.357-0.34,1.725,1.725,0,0,0-.475-0.07,1.511,1.511,0,0,0-.449.08,3.346,3.346,0,0,0-.448.16,2.367,2.367,0,0,0-.5.32c-0.282.93-.537,1.82-0.766,2.66s-0.431,1.6-.607,2.25c-0.194.76-.379,1.46-0.554,2.11-0.106.44-.211,0.91-0.317,1.4s-0.22.99-.343,1.5a4.972,4.972,0,0,0-.251-0.79,3.672,3.672,0,0,0-.436-0.78,2.332,2.332,0,0,0-.633-0.58,1.543,1.543,0,0,0-.819-0.22,4.075,4.075,0,0,0-2.046.59,6.7,6.7,0,0,0-1.821,1.61,9.169,9.169,0,0,0-1.334,2.39,9.494,9.494,0,0,0-.607,2.91,4.8,4.8,0,0,0,.159,1.66,3.38,3.38,0,0,0,.541,1.11,1.961,1.961,0,0,0,1.544.79,3.938,3.938,0,0,0,2.152-.73,11.29,11.29,0,0,0,2.231-1.96q-0.054.45-.079,0.63a2.2,2.2,0,0,0,.118.85,2.68,2.68,0,0,0,.409.76,2.513,2.513,0,0,0,.595.56,1.276,1.276,0,0,0,.7.21,2.436,2.436,0,0,0,1.122-.33,9.1,9.1,0,0,0,1.294-.86,13.5,13.5,0,0,0,1.346-1.22c0.449-.45.876-0.92,1.281-1.39s0.774-.94,1.108-1.39,0.608-.84.819-1.18a1.01,1.01,0,0,0,.211-0.52,0.338,0.338,0,0,0-.106-0.29,0.356,0.356,0,0,0-.277-0.06,0.6,0.6,0,0,0-.33.19c-0.088.09-.251,0.28-0.488,0.58s-0.528.65-.871,1.04-0.718.82-1.122,1.26-0.81.84-1.215,1.21a9.821,9.821,0,0,1-1.148.92,1.708,1.708,0,0,1-.911.37,0.756,0.756,0,0,1-.581-0.29,1.3,1.3,0,0,1-.237-0.95c0.017-.3.066-0.69,0.145-1.19s0.162-1.01.251-1.55A29.307,29.307,0,0,0,201.548,3512.16Zm-3.933,4.05a14.141,14.141,0,0,1-1,1.09,6.957,6.957,0,0,1-1.109.89,1.92,1.92,0,0,1-1.042.37,1.144,1.144,0,0,1-1-.55,3.156,3.156,0,0,1-.316-1.82,6.528,6.528,0,0,1,.422-1.8,10.1,10.1,0,0,1,.924-1.89,8.356,8.356,0,0,1,1.188-1.5,1.834,1.834,0,0,1,1.241-.62,0.769,0.769,0,0,1,.66.33,2.3,2.3,0,0,1,.356.77,4.21,4.21,0,0,1,.146.84c0.017,0.27.026,0.46,0.026,0.57a0.8,0.8,0,0,0,.1.46c0.071,0.1.2,0.1,0.4,0.01a0.282,0.282,0,0,0,.092-0.05,0.848,0.848,0,0,1,.092-0.05c-0.088.35-.163,0.69-0.224,1.03s-0.128.67-.2,1C198.173,3515.54,197.922,3515.84,197.615,3516.21Z" transform="translate(-115.281 -3500.03)"/>
</svg>
